<svg xmlns="http://www.w3.org/2000/svg" xmlns:xlink="http://www.w3.org/1999/xlink" width="706.49" height="603.153" viewBox="0 0 706.49 603.153"><defs><style>.a{fill:#fff;}.b,.c,.d{fill:none;stroke-miterlimit:10;}.b{stroke:#f15d5e;}.c{stroke:#1e1b4c;}.d{stroke:#618bc8;}.e{filter:url(#e);}.f{filter:url(#c);}.g{filter:url(#a);}</style><filter id="a" x="354" y="345.072" width="352.49" height="258.081" filterUnits="userSpaceOnUse"><feGaussianBlur stdDeviation="3.5"></feGaussianBlur></filter><filter id="c" x="0" y="345.072" width="352.49" height="258.081" filterUnits="userSpaceOnUse"><feGaussianBlur stdDeviation="3.5"></feGaussianBlur></filter><filter id="e" x="234.386" y="0" width="237.836" height="385.37" filterUnits="userSpaceOnUse"><feGaussianBlur stdDeviation="3.5"></feGaussianBlur></filter></defs><g transform="translate(-1038.01 -2405.347)"><g class="g" transform="matrix(1, 0, 0, 1, 1038.01, 2405.35)"><path class="a" d="M1607.216,2774.519c-115.108-55.317-211.706,18.289-211.706,18.289s1.834,120.909,119.784,177.592C1630.4,3025.717,1727,2952.111,1727,2952.111S1725.166,2831.2,1607.216,2774.519Z" transform="translate(-1038.01 -2405.35)"></path></g><g class="f" transform="matrix(1, 0, 0, 1, 1038.01, 2405.35)"><path class="a" d="M1161.294,2774.519C1276.4,2719.2,1373,2792.808,1373,2792.808s-1.834,120.909-119.784,177.592c-115.108,55.317-211.706-18.289-211.706-18.289S1043.344,2831.2,1161.294,2774.519Z" transform="translate(-1038.01 -2405.35)"></path></g><g class="e" transform="matrix(1, 0, 0, 1, 1038.01, 2405.35)"><path class="a" d="M1275.9,2592.02c0,126.525,108.418,181.2,108.418,181.2s108.418-53.523,108.418-183.173c0-126.525-108.418-181.2-108.418-181.2S1275.9,2462.37,1275.9,2592.02Z" transform="translate(-1038.01 -2405.35)"></path></g><path class="b" d="M1399.294,2587.235a15.433,15.433,0,1,0-23.631,13.058v6.715h16.4v-6.715A15.408,15.408,0,0,0,1399.294,2587.235Z"></path><line class="b" x2="16.566" transform="translate(1375.578 2610.866)"></line><line class="b" x2="16.566" transform="translate(1375.578 2614.453)"></line><line class="b" x2="13.249" y2="0.158" transform="translate(1377.237 2617.962)"></line><line class="b" y1="7.716" transform="translate(1383.861 2558.781)"></line><line class="b" y1="5.305" x2="5.305" transform="translate(1398.269 2566.015)"></line><line class="b" x1="5.305" y1="5.305" transform="translate(1364.511 2566.015)"></line><line class="b" x2="7.716" transform="translate(1404.538 2584.823)"></line><line class="b" x2="7.716" transform="translate(1356.312 2584.823)"></line><path class="b" d="M1363.052,2638.985a57.567,57.567,0,0,0,42.461,0"></path><path class="b" d="M1328.166,2597.409a57.335,57.335,0,0,1,35.749-65.283"></path><path class="b" d="M1404.661,2532.126a57.336,57.336,0,0,1,36.943,53.6,56.57,56.57,0,0,1-1.2,11.687"></path><path class="b" d="M1402.182,2538.255c-2.1-2.106-4.211-3.158-8.422-4.211-3.167-.792-6.418-1.795-4.5-5.656,1.7-3.419,3.447-5.926,3.447-11.191s-2.105-9.9-8.423-10.214c-6.317.315-8.423,4.95-8.423,10.214s1.748,7.772,3.447,11.191c1.918,3.861-1.334,4.864-4.5,5.656-4.211,1.053-6.317,2.1-8.423,4.211s-2.367,9.476-2.367,9.476h40.532S1404.288,2540.361,1402.182,2538.255Z"></path><path class="b" d="M1355.219,2630.8c-2.106-2.106-4.212-3.159-8.423-4.212-3.167-.791-6.418-1.794-4.5-5.655,1.7-3.42,3.447-5.927,3.447-11.191s-2.106-9.9-8.424-10.214c-6.317.314-8.423,4.949-8.423,10.214s1.749,7.771,3.447,11.191c1.918,3.861-1.333,4.864-4.5,5.655-4.211,1.053-6.317,2.106-8.423,4.212s-2.366,9.476-2.366,9.476h40.531S1357.324,2632.907,1355.219,2630.8Z"></path><path class="b" d="M1449.207,2630.759c-2.106-2.106-4.212-3.159-8.423-4.212-3.166-.791-6.418-1.794-4.5-5.655,1.7-3.42,3.447-5.927,3.447-11.191s-2.106-9.9-8.423-10.214c-6.318.315-8.423,4.95-8.423,10.214s1.748,7.771,3.447,11.191c1.917,3.861-1.334,4.864-4.5,5.655-4.211,1.053-6.317,2.106-8.422,4.212s-2.367,9.476-2.367,9.476h40.532S1451.313,2632.865,1449.207,2630.759Z"></path><path class="c" d="M1516.994,2895.6h-26.611s.3-8.638,2.771-11.1,4.921-3.7,9.855-4.934c3.717-.919,7.524-2.1,5.27-6.617-1.981-4.014-4.027-6.941-4.027-13.1s2.461-11.6,9.855-11.965c7.407.362,9.867,5.8,9.867,11.965s-2.046,9.091-4.04,13.1c-2.24,4.519,1.567,5.7,5.27,6.617,4.157,1.036,6.579,2.085,8.7,3.859"></path><path class="c" d="M1636.259,2895.6h-26.611a11.476,11.476,0,0,0-2.318-3.536c-4.04-4.04-8.093-6.513-14.594-8.637,2.124-1.774,4.532-2.823,8.689-3.859,3.717-.919,7.524-2.1,5.271-6.617-1.982-4.014-4.028-6.941-4.028-13.1s2.461-11.6,9.855-11.965c7.407.362,9.867,5.8,9.867,11.965s-2.046,9.091-4.04,13.1c-2.24,4.519,1.567,5.7,5.271,6.617,4.933,1.23,7.407,2.474,9.867,4.934S1636.259,2895.6,1636.259,2895.6Z"></path><path class="c" d="M1609.539,2895.592c2.643,5.993,2.22,14.587,2.22,14.587h-26.067"></path><path class="c" d="M1540.747,2910.179h-26.068s-.436-8.594,2.206-14.587a11.44,11.44,0,0,1,2.329-3.527c4.032-4.059,8.077-6.51,14.587-8.635,1.825-.6,3.841-1.158,6.115-1.73,7.777-1.934,15.785-4.413,11.059-13.905-4.167-8.4-8.471-14.573-8.471-27.512s5.175-24.352,20.7-25.115c15.54.763,20.729,12.176,20.729,25.115s-4.3,19.108-8.485,27.512c-4.713,9.492,3.282,11.971,11.072,13.905,2.261.572,4.29,1.144,6.116,1.73"></path><path class="c" d="M1563.217,2919.159l-12.205,6.417,2.331-13.591-9.874-9.625,13.646-1.983,6.1-12.365,6.1,12.365,13.646,1.983-9.874,9.625,2.331,13.591Z"></path><circle class="d" cx="6.638" cy="6.638" r="6.638" transform="translate(1230.358 2823.761)"></circle><path class="d" d="M1252.592,2839.419h-.014a18.019,18.019,0,1,0-31.163,0h-.014l.07.091a17.994,17.994,0,0,0,2.631,3.46L1237,2859.928l12.894-16.958a18.038,18.038,0,0,0,2.632-3.46Z"></path><circle class="d" cx="8.676" cy="8.676" r="8.676" transform="translate(1148.299 2911.012)"></circle><path class="d" d="M1236.546,2867.613h0c0,9.583-6.169,17.208-17.351,17.351h-43.541a18.924,18.924,0,0,0-18.924,18.924v7.1"></path><line class="d" x2="21.73" y2="21.73" transform="translate(1159.332 2844.148)"></line><line class="d" x1="21.73" y2="21.73" transform="translate(1159.332 2844.148)"></line><line class="d" x2="21.73" y2="21.73" transform="translate(1210.749 2904.411)"></line><line class="d" x1="21.73" y2="21.73" transform="translate(1210.749 2904.411)"></line></g></svg>