<svg xmlns="http://www.w3.org/2000/svg" xmlns:xlink="http://www.w3.org/1999/xlink" width="607" height="442.837" viewBox="0 0 607 442.837"><defs><style>.a{fill:url(#a);}.b,.e,.h,.j,.k,.l{fill:none;stroke-miterlimit:10;}.b,.k{stroke:#f15d5e;}.b{stroke-dasharray:10;}.b,.g{opacity:0.75;}.c{fill:#f15d5e;}.d{fill:#1e1b4c;}.e{stroke:#c6cbe9;}.e,.j,.k{stroke-width:2.5px;}.f{fill:#eed1d0;}.h{stroke:#1c1d46;}.i{fill:#c6cbe9;}.j{stroke:#1e1b4c;}.l{stroke:#1d1c49;}</style><linearGradient id="a" x1="0.5" y1="1" x2="0.5" gradientUnits="objectBoundingBox"><stop offset="0.169" stop-color="#fff"></stop><stop offset="0.594" stop-color="#f3f4fb"></stop><stop offset="1" stop-color="#e4e6f6"></stop></linearGradient></defs><g transform="translate(-1083 -308.499)"><path class="a" d="M1571.552,636.767c33.216-25.6,81.584-42.169,104.864-68.6,26.757-30.383,9.862-74.532-15.149-99.755-30.507-30.765-78.934-32.968-117.095-48.862-47.451-19.763-68.99-77.259-111.865-98.366-42.625-21.361-102.992-14.627-141.569,11.842-38.828,26.725-55.867,73.185-101.218,108.126-30.5,23.5-50.18,11.936-79.479,37.838a74.761,74.761,0,0,0-6.754,6.785c-11.4,13.018-17.178,28.8-19.055,44.505-4.147,34.687,2.252,73.485,18.038,106.488Z"></path><path class="b" d="M1251.665,608.988,1209.079,629.5l-10.518,46.082,29.47,36.955H1275.3l29.47-36.955L1294.251,629.5Z"></path><path class="c" d="M1165.037,642.5l4.123,2.255-4.123,2.255a8.755,8.755,0,0,0-3.48,3.48l-2.255,4.123-2.255-4.123a8.748,8.748,0,0,0-3.48-3.48l-4.123-2.255,4.123-2.255a8.752,8.752,0,0,0,3.48-3.479l2.255-4.124,2.255,4.124A8.752,8.752,0,0,0,1165.037,642.5Z"></path><path class="d" d="M1195.369,597.046l4.123,2.255-4.123,2.255a8.748,8.748,0,0,0-3.48,3.48l-2.255,4.123-2.255-4.123a8.748,8.748,0,0,0-3.48-3.48l-4.123-2.255,4.123-2.255a8.749,8.749,0,0,0,3.48-3.48l2.255-4.123,2.255,4.123A8.749,8.749,0,0,0,1195.369,597.046Z"></path><circle class="e" cx="5.447" cy="5.447" r="5.447" transform="translate(1148.173 578.485)"></circle><path class="f" d="M1472.512,650.308l.01-.019.019-.009Z"></path><path class="f" d="M1207.542,563.814c-1.855-62.3,42.773-95.775,90.192-96.7,46.751-.918,68.18,24.451,68.773,25.165.594-.714,22.022-26.083,68.774-25.165,47.419.927,92.046,34.4,90.192,96.7-.5,16.56-11.961,37.683-28.531,59.779,0,.009-.009.018-.019.028l-.044.045c.364.291.619.5.663.543a18.065,18.065,0,0,1-25,26.072c-.056-.051-.07-.019-.028.027a18.067,18.067,0,0,1-24.295,26.564c-.158-.12-.683-.562-1.387-1.163l1.534,1.534.454.463a3.69,3.69,0,0,1,.232.316,18.2,18.2,0,0,1-24.581,25.823c-.231-.143-1-.8-1.593-1.325a17.609,17.609,0,0,1-2.792,3.669L1380.1,746.174a17.622,17.622,0,0,1-24.921-24.921l-3.892,3.526a17.622,17.622,0,0,1-24.921-24.921l-2.965,2.6a17.622,17.622,0,0,1-24.921-24.921l-2.037,1.672a17.612,17.612,0,0,1-29.008-18.476l-.01,0C1235.637,626.4,1208.32,589.582,1207.542,563.814Z"></path><g class="g"><path class="h" d="M1495.951,604.427c.009-.009.018-.018.018-.028,16.57-22.1,28.03-43.218,28.531-59.779,1.855-62.3-42.773-95.774-90.192-96.7-46.752-.918-68.18,24.451-68.774,25.165-.593-.714-22.021-26.083-68.773-25.165-47.419.927-92.047,34.4-90.192,96.7.779,25.768,28.095,62.589,59.881,96.915"></path><path class="h" d="M1472.76,632.587a1.017,1.017,0,0,1,.13-.148.965.965,0,0,1,.13-.148"></path><path class="h" d="M1419.732,686.339a.324.324,0,0,0,.055-.065c.853-.788,1.706-1.585,2.578-2.4"></path><path class="h" d="M1365.534,473.081l-75.275,77.1a.015.015,0,0,0,0,.02h0c11.594,12.8,36.263,13.973,49.313,2.657l53.884-51.016L1495.972,604.4"></path><path class="h" d="M1471.019,630.567c.176.176.362.353.548.52a18.065,18.065,0,0,0,25-26.071c-.2-.205-.409-.4-.623-.586"></path><line class="h" x2="73.463" y2="73.463" transform="translate(1400.391 559.943)"></line><path class="h" d="M1445.459,656.117a17.563,17.563,0,0,0,1.785,1.562,18.067,18.067,0,0,0,24.295-26.564c-.167-.186-.344-.372-.52-.548"></path><path class="h" d="M1422.365,683.873c.371.278.742.538,1.131.779a18.2,18.2,0,0,0,24.581-25.824,3.806,3.806,0,0,0-.232-.315l-.454-.464-1.929-1.928-70.627-70.628"></path><path class="h" d="M1471.539,631.115l.009-.019.019-.009"></path><rect class="h" width="91.792" height="35.244" rx="16.176" transform="translate(1431.571 674.535) rotate(135)"></rect><rect class="h" width="97.037" height="35.244" rx="16.176" transform="translate(1406.467 649.431) rotate(135)"></rect><rect class="h" width="100.971" height="35.244" rx="16.176" transform="translate(1381.363 624.326) rotate(135)"></rect><rect class="h" width="103.594" height="35.244" rx="16.176" transform="translate(1356.259 599.222) rotate(135)"></rect></g><path class="i" d="M1582.275,555.347l4.758,2.6-4.758,2.6a10.1,10.1,0,0,0-4.014,4.015l-2.6,4.758-2.6-4.758a10.111,10.111,0,0,0-4.015-4.015l-4.758-2.6,4.758-2.6a10.1,10.1,0,0,0,4.015-4.014l2.6-4.758,2.6,4.758A10.094,10.094,0,0,0,1582.275,555.347Z"></path><line class="j" x2="8.777" y2="8.777" transform="translate(1483.396 392.432)"></line><line class="j" y1="8.777" x2="8.777" transform="translate(1483.396 392.432)"></line><line class="k" y2="12.135" transform="translate(1515.22 369.828)"></line><line class="k" x2="12.135" transform="translate(1509.152 375.896)"></line><line class="j" y2="12.135" transform="translate(1297.343 727.147)"></line><line class="j" x2="12.135" transform="translate(1291.275 733.215)"></line><circle class="k" cx="5.447" cy="5.447" r="5.447" transform="translate(1579.57 509.854)"></circle><path class="l" d="M1532.787,528.823c.916-.362,1.846-.692,2.743-1.01a9.106,9.106,0,0,1,4.331-.736,9,9,0,0,1,3.2,1.418l9.969,6.076a4.86,4.86,0,0,0,2.811.995c1.249-.1,2.191-1.107,3.017-2.052,2.069-2.387,6.623-5.877,7.732-8.783.893-2.336-1.3-5.137-2.715-6.862-2.962-3.615-8.575-7.384-7.662-12.745.374-2.26,1.951-4.126,2.724-6.28,1.009-2.758.851-6.2,3.1-8.082a8.945,8.945,0,0,1,3.791-1.522l10.761-2.5a3.224,3.224,0,0,0,3.082-4.185l-.6-10.648c-.073-1.371-.233-2.889-1.269-3.774a5.025,5.025,0,0,0-2.936-.878l-11.456-.986a4.825,4.825,0,0,1-5.085-3.354l-4.817-9.613a5.223,5.223,0,0,1,.48-6.567l6.1-9.97a3.044,3.044,0,0,0-.615-4.841l-8.728-7.91a5.058,5.058,0,0,0-2.46-1.486c-1.411-.218-2.693.767-3.781,1.7l-7.809,6.659a9,9,0,0,1-3.811,2.265,8.774,8.774,0,0,1-4.554-.745l-6.949-2.432a5.766,5.766,0,0,1-4.786-5.216l-2.8-11.4a3.852,3.852,0,0,0-3.881-2.937c-3.518.118-9.2.37-12.843.759a3.908,3.908,0,0,0-3.432,3.464c-.7,6.286.379,13.063-4.775,17.626a12.637,12.637,0,0,1-7.107,2.982c-6.032.59-11.517-2.336-15.912-6.18-1.027-.9-2.16-1.918-3.543-1.877s-2.462,1.145-3.392,2.163l-8.145,8.994a4.026,4.026,0,0,0-1.217,2.039"></path><path class="l" d="M1527.169,500.715a27.063,27.063,0,0,0,7.466-20.707c-1.067-14.832-13.967-26.141-28.536-25.058a27.722,27.722,0,0,0-11.192,3.288"></path></g></svg>