<svg xmlns="http://www.w3.org/2000/svg" xmlns:xlink="http://www.w3.org/1999/xlink" width="583.065" height="580.119" viewBox="0 0 583.065 580.119"><defs><style>.a{fill:url(#a);}.b{fill:#eed1d0;}.c,.f,.m,.n{fill:none;}.c,.g{stroke:#1d1c49;}.c,.f,.g,.m,.n{stroke-miterlimit:10;}.d{fill:#f15d5e;}.e{fill:#1e1b4c;}.f{stroke:#c6cbe9;}.f,.m,.n{stroke-width:2.5px;}.g,.k{fill:#fff;}.h{fill:url(#b);}.i{fill:url(#c);}.j{fill:#d7daec;}.l{fill:#c6cbe9;}.m{stroke:#1e1b4c;}.n{stroke:#f15d5e;}</style><linearGradient id="a" x1="0.5" x2="0.5" y2="1" gradientUnits="objectBoundingBox"><stop offset="0" stop-color="#e4e6f6"></stop><stop offset="0.393" stop-color="#f2f3fa"></stop><stop offset="0.831" stop-color="#fff"></stop></linearGradient><linearGradient id="b" x1="0.193" y1="1.69" x2="0.679" y2="0.406" gradientUnits="objectBoundingBox"><stop offset="0" stop-color="#e7e9f8"></stop><stop offset="0.52" stop-color="#e3e6f7"></stop><stop offset="0.631" stop-color="#e2e5f7"></stop><stop offset="0.94" stop-color="#d4d8f6"></stop><stop offset="1" stop-color="#d1d5f6"></stop></linearGradient><linearGradient id="c" x1="0.5" x2="0.5" y2="1.363" gradientUnits="objectBoundingBox"><stop offset="0" stop-color="#e2e5f7"></stop><stop offset="0.475" stop-color="#eceef9"></stop><stop offset="1" stop-color="#fff"></stop></linearGradient></defs><g transform="translate(-231 -1246.881)"><path class="a" d="M812.881,1470.992c-1.8-15.865-7.357-31.818-18.3-44.973a73.619,73.619,0,0,0-6.488-6.856c-28.145-26.176-47.048-14.49-76.346-38.237-43.56-35.309-59.926-82.258-97.227-109.264-37.056-26.744-95.042-33.549-135.986-11.963-41.184,21.329-61.874,79.431-107.454,99.4-36.656,16.063-83.174,18.287-112.478,49.377-24.022,25.488-40.254,70.1-14.551,100.8,22.362,26.711,68.822,43.454,100.728,69.324l450.779,0C810.721,1545.251,816.865,1506.045,812.881,1470.992Z"></path><path class="b" d="M403.459,1560.416a43.3,43.3,0,1,0-66.307,36.641V1615.9h46.009v-18.841A43.232,43.232,0,0,0,403.459,1560.416Z"></path><path class="c" d="M392.459,1549.416a43.3,43.3,0,1,0-66.307,36.641V1604.9h46.009v-18.841A43.232,43.232,0,0,0,392.459,1549.416Z"></path><line class="c" x2="46.483" transform="translate(325.915 1615.724)"></line><line class="c" x2="46.483" transform="translate(325.915 1625.791)"></line><line class="c" x2="37.175" y2="0.443" transform="translate(330.569 1635.636)"></line><line class="c" y1="21.651" transform="translate(349.157 1469.577)"></line><line class="c" y1="14.885" x2="14.885" transform="translate(389.584 1489.875)"></line><line class="c" x1="14.885" y1="14.885" transform="translate(294.859 1489.875)"></line><line class="c" x2="21.651" transform="translate(407.176 1542.65)"></line><line class="c" x2="21.651" transform="translate(271.854 1542.65)"></line><path class="d" d="M277.863,1653.5l4.124,2.255-4.124,2.255a8.758,8.758,0,0,0-3.479,3.48l-2.255,4.123-2.255-4.123a8.755,8.755,0,0,0-3.48-3.48l-4.123-2.255,4.123-2.255a8.758,8.758,0,0,0,3.48-3.479l2.255-4.124,2.255,4.124A8.756,8.756,0,0,0,277.863,1653.5Z"></path><path class="e" d="M293.2,1603.046l4.123,2.255-4.123,2.255a8.748,8.748,0,0,0-3.48,3.48l-2.255,4.123-2.255-4.123a8.748,8.748,0,0,0-3.48-3.48L277.6,1605.3l4.123-2.255a8.748,8.748,0,0,0,3.48-3.48l2.255-4.123,2.255,4.123A8.748,8.748,0,0,0,293.2,1603.046Z"></path><circle class="f" cx="5.447" cy="5.447" r="5.447" transform="translate(246 1584.485)"></circle><path class="g" d="M779.113,1587.224H795s-.908-25.636-8.239-32.966-14.65-10.985-29.3-14.651c-11.008-2.757-22.322-6.241-15.649-19.677,5.912-11.893,11.983-20.62,11.983-38.924s-7.319-34.442-29.3-35.543c-21.97,1.1-29.3,17.227-29.3,35.543s6.082,27.031,11.994,38.924c6.673,13.436-4.641,16.92-15.66,19.677-14.65,3.666-21.97,7.32-29.3,14.651S654,1587.224,654,1587.224h59.294"></path><path class="b" d="M759.85,1568.457c-7.526-.147-11.027,3.878-11.211,4.1-.185-.218-3.686-4.243-11.212-4.1-7.736.152-15.017,5.613-14.714,15.777.127,4.2,4.583,10.21,9.769,15.81l16.006,15.586v.01l.142.144.009-.008.008.008.142-.144v-.01l16.006-15.586c5.186-5.6,9.642-11.607,9.769-15.81C774.867,1574.07,767.586,1568.609,759.85,1568.457Z"></path><path class="c" d="M754.688,1562.41c-7.526-.147-11.027,3.878-11.212,4.1-.184-.218-3.685-4.243-11.211-4.1-7.736.152-15.017,5.613-14.714,15.777.127,4.2,4.583,10.21,9.769,15.81l16.006,15.586v.01l.142.144.008-.008.008.008.143-.144v-.01L759.633,1594c5.186-5.6,9.642-11.607,9.769-15.81C769.705,1568.023,762.424,1562.562,754.688,1562.41Z"></path><path class="h" d="M695.607,1755.749h0c-1.213,0-2.42.033-3.617.092a88.7,88.7,0,0,0-160.342,1.262A71.316,71.316,0,0,0,446.5,1827H766.858A71.251,71.251,0,0,0,695.607,1755.749Z"></path><path class="i" d="M758.856,1778.434h0c-.827,0-1.65.023-2.465.064a60.456,60.456,0,0,0-109.292.859A48.61,48.61,0,0,0,589.06,1827H807.42A48.566,48.566,0,0,0,758.856,1778.434Z"></path><path class="j" d="M308.53,1364.355c.824,0,1.645.023,2.459.064a60.317,60.317,0,0,1,109.04.858,48.495,48.495,0,0,1,57.9,47.533H260.075a48.455,48.455,0,0,1,48.453-48.455Z"></path><path class="d" d="M745.226,1703.268l-88.214-209.017a3.508,3.508,0,0,0-3.411-2.148l-64.446,3.074-27.669,75.088a5.32,5.32,0,0,0,.019,3.679l67.208,176.861a24.244,24.244,0,0,0,22.533,15.535h58.4l35.947-56.683A9.735,9.735,0,0,0,745.226,1703.268Zm-170.62-126.716a12.866,12.866,0,0,1-.037-9.09l17.407-47.232,67.894,183.9a27.827,27.827,0,0,1,1.163,7.394,10.605,10.605,0,0,1-1.08,5.107l-20.209,30.97C639.623,1747.339,585.052,1604,574.606,1576.552Zm128.845,178.485h-54.58c-.12-.24-.092-.175-.212-.406l21.878-33.541c1.152-1.484,3.347-3.78,6.076-3.78h50.976Zm-26.792-49.1c-3.24-.194-5.08-3.181-5.815-4.749l-71.594-193.9a.985.985,0,0,1,.579-1.267.971.971,0,0,1,.306-.062l46.707-2.222a2.677,2.677,0,0,1,2.592,1.632L734.107,1706Z"></path><path class="k" d="M734.107,1706l-57.448-.055c-3.24-.193-5.08-3.181-5.815-4.748l-71.594-193.9a.985.985,0,0,1,.579-1.267.971.971,0,0,1,.306-.062l46.707-2.222a2.677,2.677,0,0,1,2.592,1.632Z"></path><path class="d" d="M512.041,1387.8a13.359,13.359,0,0,0-6.509,1.761l-74.92,49.73a7.064,7.064,0,0,0-2.636,3.227L305.315,1743.337v-.018l-10.385,25.474h3.042c.029,0,.047.018.074.018,0,0,1.033-.009,2.877-.018h3.893v-.019c17.695-.11,65.138-.4,82.821-.5a38.9,38.9,0,0,0,24.718-9.073l63.137-52.93c2.332-1.973,4.388-3.365,5.357-5.928l117.7-312.547Zm-74.67,61.634a5.04,5.04,0,0,1,1.889-2.315l54.793-36.529c-.857,2.14-111.558,275.984-111.752,276.509l-1.3,3.218c-1.642,3.7-4.51,8.98-8.566,11.94,0,0,.148-.065.193-.083l-54.783,39.967ZM405.019,1750.6a27.235,27.235,0,0,1-17.333,6.37c-17.951.1-51.391.323-71.611.452l64.677-47.2c4.747-2.729,10.722-2.185,10.722-2.185h64.308Zm173.9-343.306s-85.079,226.317-104.847,278.62h-.009l-3.283,8.657a3.818,3.818,0,0,1-3.447,2.16H396.887a1.526,1.526,0,0,1-.231-.037h-6l2.969-7.422,115.514-285.823c.894-1.661,2.8-4.185,6.076-4.351h52.835l-.009-.009H581.97l-3,8.011C578.949,1407.177,578.949,1407.222,578.921,1407.3Z"></path><path class="k" d="M455.782,1708.044,405.019,1750.6a27.235,27.235,0,0,1-17.333,6.37c-17.951.1-51.391.323-71.611.452l64.677-47.2c4.747-2.729,10.722-2.185,10.722-2.185Z"></path><path class="k" d="M581.973,1399.092l-3,8.011c-.027.074-.027.12-.055.194,0,0-85.079,226.317-104.847,278.62h-.009l-3.282,8.657a3.821,3.821,0,0,1-3.448,2.16H396.887a1.659,1.659,0,0,1-.231-.037h-6l2.969-7.422,115.514-285.823c.894-1.661,2.8-4.185,6.076-4.351h52.835l-.009-.009Z"></path><path class="k" d="M494.053,1410.588c-.857,2.14-111.558,275.984-111.752,276.509l-1.3,3.218c-1.642,3.7-4.51,8.98-8.566,11.94,0,0,.148-.065.193-.083l-54.783,39.967,119.525-292.707a5.04,5.04,0,0,1,1.889-2.315Z"></path><path class="l" d="M773.275,1652.347l4.758,2.6-4.758,2.6a10.1,10.1,0,0,0-4.014,4.015l-2.6,4.758-2.6-4.758a10.11,10.11,0,0,0-4.015-4.015l-4.758-2.6,4.758-2.6a10.1,10.1,0,0,0,4.015-4.014l2.6-4.758,2.6,4.758A10.094,10.094,0,0,0,773.275,1652.347Z"></path><line class="m" x2="8.777" y2="8.777" transform="translate(658.396 1452.432)"></line><line class="m" y1="8.777" x2="8.777" transform="translate(658.396 1452.432)"></line><line class="n" y2="12.135" transform="translate(682.22 1424.828)"></line><line class="n" x2="12.135" transform="translate(676.152 1430.896)"></line><circle class="n" cx="5.447" cy="5.447" r="5.447" transform="translate(789.57 1622.854)"></circle></g></svg>