<svg xmlns="http://www.w3.org/2000/svg" width="17.799" height="23.715" viewBox="0 0 17.799 23.715"><defs><style>.a{fill:#f15d5e;}</style></defs><path class="a" d="M1473.328,102.179a7.1,7.1,0,0,1-1.745-.471,16.269,16.269,0,0,1-6.026-3.876,18.4,18.4,0,0,1-5.423-15.574,4.488,4.488,0,0,1,3.551-3.749,2.524,2.524,0,0,1,2.655,1.671,39.9,39.9,0,0,1,.326,4.468,1.47,1.47,0,0,1-.518.908,9.373,9.373,0,0,1-1.269.939c-.716.484-.779.615-.541,1.46a15.49,15.49,0,0,0,3.309,6.031c.546.624,1.148,1.2,1.729,1.794a.863.863,0,0,0,1.2.117c2.172-1.3,2.179-1.3,4.4-.092.533.289,1.033.64,1.565.931a2.532,2.532,0,0,1,1.25,2.577,1.627,1.627,0,0,1-.513,1.112,10.257,10.257,0,0,1-2.517,1.567A3.16,3.16,0,0,1,1473.328,102.179Z" transform="translate(-1460 -78.48)"></path></svg>