<svg xmlns="http://www.w3.org/2000/svg" id="Layer_1" data-name="Layer 1" viewBox="0 0 139.53 139.53"><defs><style>.cls-1{fill:none;stroke:#f05d5e;stroke-miterlimit:10;}</style></defs><circle class="cls-1" cx="72.67" cy="23.39" r="6.91"></circle><circle class="cls-1" cx="72.67" cy="118.13" r="6.91"></circle><circle class="cls-1" cx="31.79" cy="94.26" r="6.91"></circle><circle class="cls-1" cx="31.79" cy="47.08" r="6.91"></circle><circle class="cls-1" cx="113.74" cy="94.26" r="6.91"></circle><circle class="cls-1" cx="113.74" cy="47.08" r="6.91"></circle><circle class="cls-1" cx="73.05" cy="70.76" r="6.91"></circle><line class="cls-1" x1="66.43" y1="27.21" x2="38.54" y2="43.83"></line><line class="cls-1" x1="31.79" y1="53.98" x2="31.79" y2="87.35"></line><line class="cls-1" x1="37.97" y1="97.7" x2="66.24" y2="114.31"></line><line class="cls-1" x1="107.3" y1="97.7" x2="79.03" y2="114.31"></line><line class="cls-1" x1="79.03" y1="27.21" x2="106.92" y2="43.83"></line><line class="cls-1" x1="113.67" y1="53.98" x2="113.67" y2="87.35"></line><path class="cls-1" d="M92.33,66.58H88.27a1.55,1.55,0,0,1-1.08-2.65l2.87-2.87a2.24,2.24,0,0,0,0-3.16L86.4,54.23a2.3,2.3,0,0,0-3.16,0l-2.9,2.86a1.55,1.55,0,0,1-2.19,0,1.51,1.51,0,0,1-.46-1.1V52a2.24,2.24,0,0,0-2.22-2.24H70.26A2.24,2.24,0,0,0,68,52v4a1.56,1.56,0,0,1-2.63,1.09l-2.88-2.88a2.3,2.3,0,0,0-3.16,0l-3.66,3.67a2.24,2.24,0,0,0,0,3.16l2.85,2.89a1.55,1.55,0,0,1-1.1,2.65h-4a2.24,2.24,0,0,0-2.24,2.22V74a2.24,2.24,0,0,0,2.24,2.24h4.06a1.52,1.52,0,0,1,1.44,1,1.49,1.49,0,0,1-.36,1.68l-2.87,2.87a2.24,2.24,0,0,0,0,3.16l3.66,3.66a2.28,2.28,0,0,0,3.16,0l2.9-2.85A1.56,1.56,0,0,1,68,86.84v4a2.23,2.23,0,0,0,2.22,2.22h5.21a2.24,2.24,0,0,0,2.24-2.24h0V86.81a1.53,1.53,0,0,1,1-1.44,1.5,1.5,0,0,1,1.7.34l2.87,2.87a2.28,2.28,0,0,0,3.16,0l3.66-3.66a2.24,2.24,0,0,0,0-3.16l-2.87-2.87a1.55,1.55,0,0,1,0-2.2,1.52,1.52,0,0,1,1.1-.45h4.06A2.25,2.25,0,0,0,94.57,74V68.8A2.24,2.24,0,0,0,92.33,66.58Z"></path><line class="cls-1" x1="72.67" y1="30.3" x2="72.67" y2="41.35"></line><line class="cls-1" x1="72.67" y1="100.4" x2="72.67" y2="111.45"></line><line class="cls-1" x1="37.97" y1="50.52" x2="46.75" y2="56.25"></line><line class="cls-1" x1="37.78" y1="90.63" x2="45.8" y2="86.04"></line><line class="cls-1" x1="107.5" y1="50.71" x2="98.9" y2="55.86"></line><line class="cls-1" x1="107.5" y1="91.01" x2="98.52" y2="85.28"></line></svg>