<svg xmlns="http://www.w3.org/2000/svg" id="Layer_1" data-name="Layer 1" viewBox="0 0 139.53 139.53"><defs><style>.cls-1{fill:none;stroke:#f05d5e;stroke-miterlimit:10;}</style></defs><path class="cls-1" d="M35.81,64.63s-19.44-.76-9.42,25.21c3,5.77,6.08,9-6.07,11.54S8,113.83,8,118.54H36.26"></path><path class="cls-1" d="M35.43,64.63s19.44-.76,9.41,25.21c-3,5.77-6.07,9,6.08,11.54s12.3,12.45,12.3,17.16H35"></path><path class="cls-1" d="M35.66,64.63V36.43a9,9,0,0,1,9-9h75.82a9,9,0,0,1,9,9v53.5a9,9,0,0,1-9,9H43.71"></path><line class="cls-1" x1="52.67" y1="81.03" x2="116.9" y2="81.03"></line><line class="cls-1" x1="108.55" y1="43.52" x2="108.55" y2="80.72"></line><line class="cls-1" x1="92.45" y1="57.19" x2="92.45" y2="80.57"></line><line class="cls-1" x1="76.51" y1="43.52" x2="76.51" y2="80.72"></line><line class="cls-1" x1="60.41" y1="57.19" x2="60.41" y2="80.57"></line></svg>