<svg xmlns="http://www.w3.org/2000/svg" id="Layer_1" data-name="Layer 1" viewBox="0 0 139.53 139.53"><defs><style>.cls-1{fill:none;stroke:#f05d5e;stroke-miterlimit:10;}</style></defs><circle class="cls-1" cx="73.18" cy="98.45" r="2.63"></circle><path class="cls-1" d="M97.84,100.11c0,3.36-2.73,5.39-6.09,5.39H54.26a6.09,6.09,0,0,1-6.08-6.09V20.85a6.08,6.08,0,0,1,6.08-6.08H91.75a6.09,6.09,0,0,1,6.09,6.08V56.71"></path><path class="cls-1" d="M37.55,113s6-4.78,5.79-6.36-7.91-12.3-2-24.35,3.4-24.5,3.4-24.5.66-2.35,3.6-.34"></path><line class="cls-1" x1="48.03" y1="25.25" x2="97.69" y2="25.25"></line><line class="cls-1" x1="48.03" y1="92.97" x2="94.42" y2="92.97"></line><path class="cls-1" d="M58.74,127.55s1.49-4.54,5.09-5.74,12.89,4.81,27.64-16.38"></path><rect class="cls-1" x="91.97" y="55.88" width="8.08" height="12.28" rx="3.06" transform="translate(67.96 -48.79) rotate(42.94)"></rect><rect class="cls-1" x="92.75" y="66.64" width="8.08" height="12.28" rx="3.06" transform="translate(75.5 -46.44) rotate(42.94)"></rect><rect class="cls-1" x="93.48" y="77.86" width="8.08" height="12.28" rx="3.06" transform="translate(83.34 -43.93) rotate(42.94)"></rect><rect class="cls-1" x="94.07" y="88.62" width="8.08" height="12.28" rx="3.06" transform="translate(90.83 -41.45) rotate(42.94)"></rect></svg>