<svg xmlns="http://www.w3.org/2000/svg" id="Layer_1" data-name="Layer 1" viewBox="0 0 139.53 139.53"><defs><style>.cls-1{fill:none;stroke:#f05d5e;stroke-miterlimit:10;}</style></defs><path class="cls-1" d="M73.84,105.94l4.85,3.75a5.62,5.62,0,0,0,7.84-1.18l.29-.39a5.6,5.6,0,0,0,1-4.32,5.37,5.37,0,0,0,1.54.23,5,5,0,0,0,.86-.07,5.58,5.58,0,0,0,3.67-2.22l.29-.39a5.61,5.61,0,0,0,1-4.31,5.61,5.61,0,0,0,1.53.23,5,5,0,0,0,.86-.07A5.58,5.58,0,0,0,101.22,95l.29-.39a5.59,5.59,0,0,0,1-4.32,5.56,5.56,0,0,0,6.07-2l.28-.39a5.58,5.58,0,0,0-.14-6.8,13.18,13.18,0,0,0,7.07-5l.93,1.89a1,1,0,0,0,.57.49.92.92,0,0,0,.29,0,1,1,0,0,0,.45-.11l10.45-5.73a1,1,0,0,0,.39-1.26L114.7,43.26a1,1,0,0,0-1.28-.42l0,0-10.06,5.85a1,1,0,0,0-.38,1.25l.63,1.28c-4,.22-10.09-2.33-15.56-4.63-4.68-2-9.09-3.82-12-3.88a17.94,17.94,0,0,0-5.66,1.1C64.19,41.9,56.43,46,50.73,49a25.93,25.93,0,0,1-5.51,2.53A18.26,18.26,0,0,1,38.28,51l.49-1a1,1,0,0,0-.37-1.25L28.33,42.87a1,1,0,0,0-1.3.34l0,0L12.84,71.37a1,1,0,0,0,.39,1.26l10.45,5.73a1,1,0,0,0,.46.11.9.9,0,0,0,.28,0,1,1,0,0,0,.57-.49l1-1.92a37.94,37.94,0,0,0,10.7,9.53m72-4.77L75.71,55.59a.89.89,0,0,0-.56-.2H71.68a8.13,8.13,0,0,0-7.28,4.77l-2.18,4.51a4.78,4.78,0,0,1-5.36,2.71,3.24,3.24,0,0,1-2.34-3.58,55,55,0,0,1,1.79-10.52c.79-1.94,8-7.2,14.17-9.51m32.3,5.85,12.94,26.23"></path><rect class="cls-1" x="40.13" y="68.2" width="10.58" height="28.27" rx="5.27" transform="translate(54.83 -11.23) rotate(34.63)"></rect><rect class="cls-1" x="49.19" y="70.83" width="10.58" height="34.7" rx="5.27" transform="translate(59.75 -15.34) rotate(34.63)"></rect><rect class="cls-1" x="57.24" y="80.77" width="10.31" height="28.57" rx="5.16" transform="matrix(0.82, 0.57, -0.57, 0.82, 65.06, -18.62)"></rect><rect class="cls-1" x="66.33" y="88.92" width="10.31" height="22.95" rx="5.16" transform="translate(69.7 -22.84) rotate(34.63)"></rect><line class="cls-1" x1="38.92" y1="49.14" x2="25.19" y2="77.61"></line><line class="cls-1" x1="88.17" y1="103.96" x2="80.11" y2="97.13"></line><line class="cls-1" x1="95.29" y1="97.24" x2="81.31" y2="85.59"></line><line class="cls-1" x1="102.82" y1="90.41" x2="85.94" y2="76.13"></line></svg>