<svg xmlns="http://www.w3.org/2000/svg" id="Layer_1" data-name="Layer 1" viewBox="0 0 139.53 139.53"><defs><style>.cls-1{fill:none;stroke:#f05d5e;stroke-miterlimit:10;}</style></defs><rect class="cls-1" x="18.46" y="71.08" width="19.7" height="40.18"></rect><path class="cls-1" d="M38.16,77.26h11a13,13,0,0,1,5.15,1.06l11,4.75a9.42,9.42,0,0,0,3.7.76h16a4.31,4.31,0,0,1,4.3,4.3v4.28a.88.88,0,0,0,1.29.79L112.12,82a6.48,6.48,0,0,1,8,1.63h0a4.23,4.23,0,0,1-.79,6.1L86.43,113.45a5.83,5.83,0,0,1-3.4,1.09H77.72a16.79,16.79,0,0,1-6.26-1.2l-22.83-9.1a4.64,4.64,0,0,0-1.68-.32H38.16"></path><path class="cls-1" d="M90.31,93.3H68.1c-4.64,0-6.18,3.6-6.18,7h0"></path><line class="cls-1" x1="51.62" y1="77.01" x2="51.62" y2="61.81"></line><line class="cls-1" x1="65.27" y1="83.06" x2="65.27" y2="48.29"></line><line class="cls-1" x1="78.4" y1="57.05" x2="78.4" y2="83.83"></line><line class="cls-1" x1="91.41" y1="45.58" x2="91.41" y2="92.72"></line><line class="cls-1" x1="104.67" y1="33.48" x2="104.67" y2="85.89"></line><polyline class="cls-1" points="43.25 70.05 65.14 48.16 78.53 57.3 112.79 25.62"></polyline><polyline class="cls-1" points="104.93 24.98 113.17 24.98 113.17 33.09"></polyline></svg>