<svg xmlns="http://www.w3.org/2000/svg" id="Layer_1" data-name="Layer 1" viewBox="0 0 139.53 139.53"><defs><style>.cls-1{fill:none;stroke:#f05d5e;stroke-miterlimit:10;}</style></defs><path class="cls-1" d="M105.08,77.68A34.55,34.55,0,0,1,38.32,79"></path><path class="cls-1" d="M37.79,62a34.55,34.55,0,0,1,66.79-2.59"></path><path class="cls-1" d="M61.72,117.13a48.66,48.66,0,0,1-.53-95.2"></path><path class="cls-1" d="M81.33,21.82A48.66,48.66,0,0,1,82,117"></path><rect class="cls-1" x="33.4" y="69.48" width="9.44" height="9.44"></rect><rect class="cls-1" x="99.46" y="59.66" width="9.44" height="9.44"></rect><circle class="cls-1" cx="71.52" cy="21.16" r="6.42"></circle><circle class="cls-1" cx="71.52" cy="118.37" r="6.42"></circle><circle class="cls-1" cx="71.52" cy="69.48" r="18.06"></circle><polyline class="cls-1" points="53.46 69.48 71.52 69.48 83.22 55.51"></polyline><line class="cls-1" x1="71.52" y1="69.48" x2="84.73" y2="82.5"></line></svg>