<svg xmlns="http://www.w3.org/2000/svg" id="Layer_1" data-name="Layer 1" viewBox="0 0 139.53 139.53"><defs><style>.cls-1{fill:none;stroke:#f05d5e;stroke-miterlimit:10;}</style></defs><path class="cls-1" d="M14.86,101.17H124.36a0,0,0,0,1,0,0v4.1a8.12,8.12,0,0,1-8.12,8.12H23a8.12,8.12,0,0,1-8.12-8.12v-4.1A0,0,0,0,1,14.86,101.17Z"></path><path class="cls-1" d="M29.82,31.54h78.82a9.3,9.3,0,0,1,9.3,9.3v60.29a0,0,0,0,1,0,0H20.51a0,0,0,0,1,0,0V40.84A9.3,9.3,0,0,1,29.82,31.54Z"></path><circle class="cls-1" cx="45.08" cy="86.53" r="5.02"></circle><circle class="cls-1" cx="93.61" cy="46.75" r="5.02"></circle><path class="cls-1" d="M45.08,81.51V79.34A13.21,13.21,0,0,1,58.3,66.13H80.39A13.22,13.22,0,0,0,93.61,52.91V51.77"></path><line class="cls-1" x1="46.6" y1="44.42" x2="56.11" y2="54.46"></line><line class="cls-1" x1="55.75" y1="44.42" x2="46.24" y2="55"></line><line class="cls-1" x1="73.52" y1="79.23" x2="83.03" y2="89.28"></line><line class="cls-1" x1="82.67" y1="79.23" x2="73.16" y2="89.81"></line><polyline class="cls-1" points="58.39 101.33 60.83 106.82 77.17 106.82 79.77 101.33"></polyline></svg>