<svg xmlns="http://www.w3.org/2000/svg" id="Layer_1" data-name="Layer 1" viewBox="0 0 139.53 139.53"><defs><style>.cls-1{fill:none;stroke:#f05d5e;stroke-miterlimit:10;}</style></defs><circle class="cls-1" cx="27.42" cy="48.63" r="9.19"></circle><circle class="cls-1" cx="28.54" cy="113.82" r="10.17"></circle><circle class="cls-1" cx="89.28" cy="118" r="7.77"></circle><circle class="cls-1" cx="115.47" cy="77.05" r="11.83"></circle><path class="cls-1" d="M79.66,63.64A18.09,18.09,0,1,1,61.5,60.37"></path><line class="cls-1" x1="34.39" y1="54.48" x2="52.22" y2="68.41"></line><line class="cls-1" x1="52.78" y1="88.75" x2="35.22" y2="106.02"></line><line class="cls-1" x1="75.9" y1="93.21" x2="85.65" y2="111.04"></line><line class="cls-1" x1="85.91" y1="77.32" x2="103.63" y2="77.32"></line><path class="cls-1" d="M72,13.75a20,20,0,0,1,20,20c0,9.77-16.08,28-20,32.29-3.91-4.25-20-22.52-20-32.29A20,20,0,0,1,72,13.75Z"></path><path class="cls-1" d="M64.76,33.74A7.24,7.24,0,1,1,72,41,7.36,7.36,0,0,1,64.76,33.74Z"></path></svg>