<svg xmlns="http://www.w3.org/2000/svg" width="72" height="56" viewBox="0 0 72 56" fill="none"><path d="M67.2411 55H4.55804C2.58135 55 1 53.3636 1 51.3182V46.9547H70.843V51.3182C70.843 53.3636 69.2177 55 67.2411 55Z" stroke="#F15D5F" stroke-miterlimit="10"></path><path d="M62.6284 1H8.68672C6.44647 1 4.60156 2.90906 4.60156 5.2272V46.9083H66.7135V5.2272C66.7135 2.90906 64.9125 1 62.6284 1Z" stroke="#F15D5F" stroke-miterlimit="10"></path><path d="M20.2838 40.5912C22.0547 40.5912 23.4904 39.1056 23.4904 37.2731C23.4904 35.4405 22.0547 33.955 20.2838 33.955C18.5128 33.955 17.0771 35.4405 17.0771 37.2731C17.0771 39.1056 18.5128 40.5912 20.2838 40.5912Z" stroke="#F15D5F" stroke-miterlimit="10"></path><path d="M51.2081 14.3643C52.9791 14.3643 54.4147 12.8788 54.4147 11.0462C54.4147 9.21366 52.9791 7.72809 51.2081 7.72809C49.4371 7.72809 48.0015 9.21366 48.0015 11.0462C48.0015 12.8788 49.4371 14.3643 51.2081 14.3643Z" stroke="#F15D5F" stroke-miterlimit="10"></path><path d="M20.2837 33.9549V32.5458C20.2837 27.7277 24.0614 23.8187 28.7176 23.8187H42.8179C47.4741 23.8187 51.2518 19.9097 51.2518 15.0916V14.3188" stroke="#F15D5F" stroke-miterlimit="10"></path><path d="M21.25 9.50073L27.3118 16.137" stroke="#F15D5F" stroke-miterlimit="10"></path><path d="M27.0926 9.50073L21.0308 16.5006" stroke="#F15D5F" stroke-miterlimit="10"></path><path d="M38.4253 32.455L44.4871 39.0912" stroke="#F15D5F" stroke-miterlimit="10"></path><path d="M44.2235 32.455L38.1616 39.4548" stroke="#F15D5F" stroke-miterlimit="10"></path><path d="M28.7612 47.0456L30.2987 50.6819H40.7531L42.3784 47.0456" stroke="#F15D5F" stroke-miterlimit="10"></path></svg>