<svg xmlns="http://www.w3.org/2000/svg" xmlns:xlink="http://www.w3.org/1999/xlink" width="701.854" height="698.307" viewBox="0 0 701.854 698.307"><defs><style>.a{fill:url(#a);}.b{fill:url(#b);}.c{fill:url(#c);}.d{fill:#d8dbef;}.e{fill:#1d1e49;}.f{fill:none;stroke:#1e1b4c;stroke-miterlimit:10;}.g{fill:#f5d1d0;}.h{fill:#f15d5e;}.i{fill:#fff;}</style><linearGradient id="a" x1="0.164" y1="0.061" x2="0.545" y2="0.98" gradientUnits="objectBoundingBox"><stop offset="0" stop-color="#e8eafa"></stop><stop offset="0.52" stop-color="#e4e7fa"></stop><stop offset="0.631" stop-color="#e3e6fa"></stop><stop offset="0.94" stop-color="#d5d9fa"></stop><stop offset="1" stop-color="#d2d6fa"></stop></linearGradient><linearGradient id="b" x1="0.5" x2="0.5" y2="1.363" gradientUnits="objectBoundingBox"><stop offset="0" stop-color="#e3e6fa"></stop><stop offset="0.475" stop-color="#edeffb"></stop><stop offset="1" stop-color="#fff"></stop></linearGradient><linearGradient id="c" x1="0.5" y1="1" x2="0.5" gradientUnits="objectBoundingBox"><stop offset="0.169" stop-color="#fff"></stop><stop offset="0.607" stop-color="#f3f4fc"></stop><stop offset="1" stop-color="#e5e7f9"></stop></linearGradient></defs><g transform="translate(-200.146 -340.693)"><path class="a" d="M759.407,953.233c-1.46,0-2.913.04-4.354.111a106.764,106.764,0,0,0-193.008,1.519A85.845,85.845,0,0,0,459.551,1039H845.174A85.767,85.767,0,0,0,759.407,953.233Z"></path><path class="b" d="M835.54,980.54c-.995,0-1.986.027-2.967.076a72.773,72.773,0,0,0-131.558,1.035A58.513,58.513,0,0,0,631.154,1039H894A58.459,58.459,0,0,0,835.54,980.54Z"></path><path class="c" d="M765.043,740c38.406-31.14,94.332-51.295,121.25-83.447,30.939-36.958,11.4-90.661-17.516-121.342-35.274-37.423-91.269-40.1-135.393-59.436-54.866-24.04-79.771-93.979-129.346-119.653-49.285-25.984-119.085-17.793-163.691,14.4-44.9,32.508-64.6,89.022-117.035,131.524-35.267,28.585-58.021,14.519-91.9,46.027a88.913,88.913,0,0,0-7.81,8.253c-13.176,15.835-19.862,35.039-22.032,54.136-4.795,42.194,2.6,89.388,20.856,129.533Z"></path><path class="d" d="M808.674,482.1c-.992,0-1.981.027-2.96.076a72.605,72.605,0,0,0-131.255,1.033,58.376,58.376,0,0,0-69.7,57.217H867A58.325,58.325,0,0,0,808.674,482.1Z"></path><path class="e" d="M205.57,743.763h30.2c-.093-1.16-.116-2.32-.116-3.479A63.779,63.779,0,0,1,299.438,676.5c1.16,0,2.32.024,3.479.116v-30.2q-1.738-.069-3.479-.07A93.931,93.931,0,0,0,205.5,740.284Q205.5,742.022,205.57,743.763Z"></path><path class="f" d="M205.57,743.763h30.2c-.093-1.16-.116-2.32-.116-3.479A63.779,63.779,0,0,1,299.438,676.5c1.16,0,2.32.024,3.479.116v-30.2q-1.738-.069-3.479-.07A93.931,93.931,0,0,0,205.5,740.284Q205.5,742.022,205.57,743.763Z"></path><path class="g" d="M230.392,763.676h30.2a63.775,63.775,0,1,0,67.149-67.148v-30.2a93.936,93.936,0,1,1-97.348,97.348Z"></path><path class="f" d="M217.019,772.894h30.2a63.774,63.774,0,1,0,67.148-67.148v-30.2a93.935,93.935,0,1,1-97.347,97.347Z"></path><path class="g" d="M677.5,731.243a6.86,6.86,0,0,0,.961,4.019c1.1,1.475,3.1,1.864,4.921,2.143l15.971,2.449c1.6.245,3.3.542,4.469,1.663a7.944,7.944,0,0,1,1.708,3.115q2.543,6.957,5.084,13.913a7.45,7.45,0,0,1-1.188,8.88q-4.764,6.74-9.529,13.477a7.265,7.265,0,0,0-1.714,3.871c-.03,1.763,1.2,3.266,2.358,4.594l7.989,9.14a11.264,11.264,0,0,0,3.638,3.12c3.061,1.37,6.668-.248,9.187-2.46s4.523-5.046,7.383-6.8c7.467-4.57,17-.1,24.549,4.327a14.976,14.976,0,0,1,4.553,3.535c1.414,1.857,1.875,4.247,2.3,6.543l2.724,14.859a3.724,3.724,0,0,0,4.541,3.8l14.01.205a10.687,10.687,0,0,0,4.64-.622c2.7-1.233,3.88-4.46,4.067-7.418s-.345-5.957.157-8.879c1.618-9.423,12.456-13.7,21.666-16.268,1.981-.552,4.061-1.108,6.068-.66a12.6,12.6,0,0,1,4.306,2.24L835.59,803.3a6.779,6.779,0,0,0,3.809,1.613c1.729-.033,3.129-1.35,4.343-2.582,3.074-3.124,9.671-7.578,11.449-11.5,1.438-3.166-1.352-7.231-3.157-9.737-3.793-5.265-11.24-10.953-9.53-18.3.72-3.093,3.051-5.54,4.317-8.452,1.625-3.734,1.7-8.513,4.981-10.922a12.329,12.329,0,0,1,5.372-1.79l15.11-2.533a5.965,5.965,0,0,0,3.624-1.5c.939-1.059,1-2.61,1-4.025q.037-7.4.077-14.8c.009-1.894-.072-4.016-1.439-5.327a7.079,7.079,0,0,0-3.992-1.468l-15.766-2.336a6.71,6.71,0,0,1-6.76-5.079l-5.843-13.716a9.715,9.715,0,0,1-1.048-3.9c.037-1.907,1.174-3.594,2.27-5.156l9.3-13.271c.788-1.123,1.614-2.39,1.44-3.752a5.638,5.638,0,0,0-1.875-3l-11.411-11.706a6.987,6.987,0,0,0-3.282-2.265c-1.935-.419-3.8.837-5.38,2.026l-11.374,8.546c-1.659,1.247-3.417,2.535-5.473,2.81-2.141.287-4.25-.569-6.239-1.409l-9.4-3.963a7.988,7.988,0,0,1-6.181-7.632l-2.907-16.009a5.346,5.346,0,0,0-5.118-4.4c-4.877-.13-12.77-.274-17.841-.037a5.4,5.4,0,0,0-5.052,4.5c-1.51,8.64-.582,18.116-8.107,23.982a17.443,17.443,0,0,1-10.095,3.519c-8.4.309-15.74-4.21-21.493-9.9-1.353-1.339-2.846-2.848-4.75-2.909s-3.51,1.369-4.882,2.707l-12.04,11.749a5.629,5.629,0,0,0-1.853,2.718c-.3,1.516.663,2.967,1.58,4.213l10.132,13.76a8.626,8.626,0,0,1,1.77,3.349c.292,1.535-2.664,19.687-10.077,22.071-6.551,2.107-19.922-.181-23.827,5.486a13.186,13.186,0,0,0-1.813,5.9A83.9,83.9,0,0,0,677.5,731.243Zm62.561-4.778c-.475-20.626,16.6-37.9,37.738-38.176,20.268-.263,37.146,16.5,37.368,37.111a37.645,37.645,0,0,1-37.228,38.014C757.69,763.553,740.526,746.81,740.059,726.465Z"></path><path class="f" d="M781.68,620.291c5.07-.237,12.964-.093,17.841.036a5.349,5.349,0,0,1,5.119,4.4l2.906,16.009a7.988,7.988,0,0,0,6.181,7.633l9.4,3.963c1.99.839,4.1,1.7,6.239,1.409,2.057-.275,3.815-1.564,5.473-2.81l11.375-8.546c1.583-1.189,3.444-2.446,5.38-2.026a7,7,0,0,1,3.283,2.264l11.41,11.707a5.639,5.639,0,0,1,1.875,3c.173,1.362-.653,2.628-1.44,3.752l-9.3,13.27c-1.1,1.562-2.233,3.25-2.269,5.157a9.721,9.721,0,0,0,1.048,3.9l5.843,13.716a6.713,6.713,0,0,0,6.76,5.079l15.766,2.336a7.071,7.071,0,0,1,3.992,1.468c1.367,1.311,1.448,3.432,1.438,5.326l-.076,14.8c-.007,1.415-.064,2.967-1,4.026a5.973,5.973,0,0,1-3.624,1.5l-15.11,2.533a12.32,12.32,0,0,0-5.372,1.789c-3.283,2.41-3.356,7.188-4.981,10.923-1.266,2.912-3.6,5.359-4.317,8.452-1.711,7.351,5.736,13.038,9.529,18.3,1.8,2.506,4.6,6.571,3.158,9.737-1.778,3.917-8.375,8.371-11.45,11.494-1.213,1.233-2.613,2.55-4.342,2.582a6.765,6.765,0,0,1-3.809-1.613l-13.277-9.265a12.589,12.589,0,0,0-4.307-2.24c-2.007-.448-4.086.108-6.067.66-9.21,2.568-20.048,6.844-21.666,16.268-.5,2.922.029,5.92-.157,8.879s-1.372,6.184-4.067,7.418a10.7,10.7,0,0,1-4.64.621l-14.01-.2a3.724,3.724,0,0,1-4.541-3.8l-2.724-14.859c-.421-2.3-.882-4.686-2.3-6.543a14.962,14.962,0,0,0-4.552-3.536c-7.55-4.432-17.082-8.9-24.55-4.326-2.86,1.75-4.862,4.585-7.382,6.8s-6.126,3.829-9.187,2.46a11.255,11.255,0,0,1-3.638-3.12l-7.989-9.14c-1.16-1.328-2.388-2.831-2.358-4.594a7.262,7.262,0,0,1,1.714-3.871l9.529-13.477a7.457,7.457,0,0,0,1.189-8.881L718.54,737.2a7.949,7.949,0,0,0-1.708-3.115c-1.165-1.121-2.871-1.418-4.469-1.663l-15.971-2.45c-1.817-.278-3.825-.667-4.922-2.142a6.863,6.863,0,0,1-.96-4.019,83.9,83.9,0,0,1,.663-12.373,13.176,13.176,0,0,1,1.814-5.9c3.9-5.668,17.275-3.38,23.826-5.487,7.413-2.384,10.369-20.535,10.077-22.07a8.619,8.619,0,0,0-1.77-3.349l-10.132-13.76c-.917-1.246-1.885-2.7-1.58-4.214a5.624,5.624,0,0,1,1.853-2.717l12.04-11.75c1.371-1.337,2.968-2.768,4.882-2.706s3.4,1.57,4.75,2.909c5.753,5.691,13.1,10.21,21.493,9.9a17.444,17.444,0,0,0,10.095-3.52c7.525-5.866,6.6-15.341,8.107-23.982A5.4,5.4,0,0,1,781.68,620.291Z"></path><path class="f" d="M790.809,680.854c-21.136.275-38.214,17.55-37.739,38.175.468,20.346,17.632,37.089,37.878,36.95a37.644,37.644,0,0,0,37.228-38.014C827.955,697.353,811.077,680.59,790.809,680.854Z"></path><path class="h" d="M819.136,890.06l-106.187-251.6a4.222,4.222,0,0,0-4.106-2.586l-77.575,3.7L597.962,729.96a6.4,6.4,0,0,0,.023,4.428l80.9,212.894a29.185,29.185,0,0,0,27.124,18.7h70.295l43.271-68.231A11.72,11.72,0,0,0,819.136,890.06ZM613.755,737.528a15.486,15.486,0,0,1-.045-10.942l20.954-56.855L716.39,891.093a33.551,33.551,0,0,1,1.4,8.9,12.788,12.788,0,0,1-1.3,6.148L692.163,943.42C692.018,943.109,626.329,770.567,613.755,737.528ZM768.85,952.376h-65.7c-.145-.289-.111-.211-.255-.489l26.335-40.374c1.387-1.787,4.029-4.55,7.314-4.55h61.361Zm-32.251-59.1c-3.9-.233-6.115-3.829-7-5.716L643.42,654.16a1.186,1.186,0,0,1,1.065-1.6l56.223-2.675a3.221,3.221,0,0,1,3.119,1.965L805.751,893.345Z"></path><path class="i" d="M805.751,893.345l-69.152-.066c-3.9-.233-6.115-3.829-7-5.716L643.42,654.16a1.186,1.186,0,0,1,1.065-1.6l56.223-2.675a3.221,3.221,0,0,1,3.119,1.965Z"></path><path class="h" d="M538.443,510.318a16.089,16.089,0,0,0-7.835,2.12L440.425,572.3a8.506,8.506,0,0,0-3.174,3.884L289.6,938.292v-.022L277.1,968.934h3.662c.034,0,.056.022.089.022,0,0,1.243-.011,3.463-.022H289v-.022c21.3-.133,78.408-.477,99.694-.6a46.824,46.824,0,0,0,29.754-10.921l76-63.714c2.807-2.375,5.282-4.05,6.448-7.136L642.576,510.318ZM448.56,584.509a6.07,6.07,0,0,1,2.275-2.786l65.956-43.971c-1.032,2.575-134.286,332.21-134.52,332.842l-1.564,3.874c-1.976,4.45-5.428,10.809-10.311,14.372,0,0,.178-.078.233-.1l-65.944,48.11ZM409.617,947.038a32.775,32.775,0,0,1-20.864,7.668c-21.608.123-61.861.389-86.2.544l77.853-56.811c5.715-3.285,12.907-2.63,12.907-2.63h77.409ZM618.949,533.79S516.536,806.215,492.741,869.174h-.011l-3.951,10.421a4.6,4.6,0,0,1-4.15,2.6h-84.8a1.919,1.919,0,0,1-.278-.045h-7.225l3.574-8.934L534.947,529.162c1.077-2,3.374-5.038,7.314-5.238h63.6l-.011-.011h16.769l-3.607,9.644C618.982,533.646,618.982,533.7,618.949,533.79Z"></path><path class="i" d="M470.723,895.809l-61.106,51.229a32.775,32.775,0,0,1-20.864,7.668c-21.608.123-61.861.389-86.2.544l77.853-56.811c5.715-3.285,12.907-2.63,12.907-2.63Z"></path><path class="i" d="M622.622,523.913l-3.607,9.644c-.033.089-.033.144-.066.233,0,0-102.413,272.425-126.208,335.384h-.011l-3.951,10.421a4.6,4.6,0,0,1-4.15,2.6h-84.8a1.919,1.919,0,0,1-.278-.045h-7.225l3.574-8.934L534.947,529.162c1.077-2,3.374-5.038,7.314-5.238h63.6l-.011-.011Z"></path><path class="i" d="M516.791,537.752c-1.032,2.575-134.286,332.21-134.52,332.842l-1.564,3.874c-1.976,4.45-5.428,10.809-10.311,14.372,0,0,.178-.078.233-.1l-65.944,48.11L448.56,584.509a6.07,6.07,0,0,1,2.275-2.786Z"></path></g></svg>