<svg xmlns="http://www.w3.org/2000/svg" width="1091.813" height="877.441" viewBox="0 0 1091.813 877.441"><defs><style>.a{opacity:0.07;isolation:isolate;}.b{fill:#746dcb;}</style></defs><g class="a" transform="translate(-533.06 -91.01)"><path class="b" d="M1071.586,323.666,1211.652,317a8.043,8.043,0,0,1,7.792,4.895l136.808,324.185V558.86L1242.167,288.535a10.562,10.562,0,0,0-10.232-6.45l-193.27,9.217L955.7,516.494a15.663,15.663,0,0,0,.049,11.017l121.305,319.224h36.522c-47.229-124.006-101.808-267.379-118.555-311.383a38.684,38.684,0,0,1-.1-27.257l52.189-141.654,177.341,480.293H1260.6L1068.934,327.66A2.974,2.974,0,0,1,1071.586,323.666Z" transform="translate(268.62 121.716)"></path><path class="b" d="M1076,91.01a40.079,40.079,0,0,0-19.5,5.255L831.821,245.433a21.18,21.18,0,0,0-7.907,9.675L533.06,968.451h36.211l282.8-692.618a15.256,15.256,0,0,1,5.681-6.925l164.359-109.584S746.253,841.711,695.079,968.451h36.588L1067.31,137.944c2.685-4.977,8.4-12.54,18.2-13.031h158.466l-.033-.049h41.81l-9,24.048c-.1.213-.066.344-.164.557,0,0-239.091,635.993-308.158,818.982h36.6L1335.459,91.01Z" transform="translate(0 0)"></path></g></svg>