<svg xmlns="http://www.w3.org/2000/svg" width="119.088" height="182.905" viewBox="0 0 119.088 182.905"><defs><style>.a{fill:none;stroke:#618bc8;stroke-miterlimit:10;stroke-width:1.5px;}</style></defs><g transform="translate(-334.801 -2605.5)"><path class="a" d="M355.3,2618.827q15.84-12.574,40.515-12.577,16.926,0,29.267,6.046t18.624,16.448a44.466,44.466,0,0,1,6.289,23.462q0,15-7.983,25.638T422.9,2692.115v.967a40.631,40.631,0,0,1,22.252,15.843q7.981,11.49,7.982,29.388a49.209,49.209,0,0,1-6.531,25.4q-6.531,11.128-19.35,17.536t-30.717,6.41q-26.124,0-42.933-13.424t-18.02-38.579h26.606q.963,12.823,9.917,20.922t24.187,8.1q14.751,0,22.737-8.1t7.981-20.922q0-16.928-10.763-24.067t-33.016-7.135h-6.288v-22.736h6.53q19.593-.237,29.871-6.53t10.28-19.834q0-11.61-7.5-18.5t-21.285-6.894q-13.548,0-21.043,6.894a27.831,27.831,0,0,0-8.949,17.051H338.006Q339.458,2631.4,355.3,2618.827Z"></path></g></svg>