<svg xmlns="http://www.w3.org/2000/svg" xmlns:xlink="http://www.w3.org/1999/xlink" width="397.093" height="432.008" viewBox="0 0 397.093 432.008"><defs><style>.a{fill:url(#a);}.b{fill:#f0f2fa;}.c{fill:#f5d1d0;}.d,.h{fill:#fff;}.d{stroke:#1e1b4c;stroke-miterlimit:10;}.e{fill:#f15d5e;}.f{fill:#e4e7f6;}.g{fill:#f3f5fb;}.i{fill:#1e1b4c;}.j{fill:url(#b);}.k{fill:url(#c);}.l{fill:url(#d);}.m{fill:#efbdbd;}</style><linearGradient id="a" x1="0.5" y1="1" x2="0.5" gradientUnits="objectBoundingBox"><stop offset="0.169" stop-color="#fff"></stop><stop offset="0.607" stop-color="#f3f4fc"></stop><stop offset="1" stop-color="#e5e7f9"></stop></linearGradient><linearGradient id="b" x1="0.5" x2="0.5" y2="1" gradientUnits="objectBoundingBox"><stop offset="0" stop-color="#1d1c49"></stop><stop offset="0.111" stop-color="#2a214a"></stop><stop offset="0.319" stop-color="#4d2e4f"></stop><stop offset="0.6" stop-color="#854457"></stop><stop offset="0.94" stop-color="#d26361"></stop><stop offset="0.982" stop-color="#dd6763"></stop></linearGradient><linearGradient id="c" x1="0.164" y1="0.061" x2="0.545" y2="0.98" gradientUnits="objectBoundingBox"><stop offset="0" stop-color="#e8eafa"></stop><stop offset="0.52" stop-color="#e4e7fa"></stop><stop offset="0.631" stop-color="#e3e6fa"></stop><stop offset="0.94" stop-color="#d5d9fa"></stop><stop offset="1" stop-color="#d2d6fa"></stop></linearGradient><linearGradient id="d" x1="0.5" x2="0.5" y2="1.363" gradientUnits="objectBoundingBox"><stop offset="0" stop-color="#e3e6fa"></stop><stop offset="0.475" stop-color="#edeffb"></stop><stop offset="1" stop-color="#fff"></stop></linearGradient></defs><g transform="translate(-1323.654 -1542.992)"><path class="a" d="M1642.995,1775.458c21.711-19.487,53.327-32.1,68.543-52.22,17.49-23.127,6.447-56.734-9.9-75.934-19.941-23.418-51.6-25.095-76.54-37.194-31.015-15.043-45.1-41.4-73.12-57.462-27.861-16.261-67.32-11.135-92.536,9.014-25.38,20.343-36.517,38.3-66.16,64.892-19.937,17.887-32.8,9.085-51.951,28.8a53.767,53.767,0,0,0-4.416,5.165c-7.448,9.909-11.228,21.927-12.455,33.877a173.467,173.467,0,0,0,11.791,81.06Z"></path><rect class="b" width="237.574" height="324.967" rx="30.575" transform="translate(1397.295 1650.033)"></rect><path class="c" d="M1447.355,1749.305H1331.113a25.872,25.872,0,0,1,30.893-25.361,32.168,32.168,0,0,1,52.258-8.909,31.734,31.734,0,0,1,5.922,8.451c.433-.025.874-.034,1.316-.034A25.851,25.851,0,0,1,1447.355,1749.305Z"></path><rect class="d" width="237.574" height="324.967" rx="23.68" transform="translate(1414.688 1632.64)"></rect><path class="e" d="M1445.275,1848.245l-3.86,2.029.737-4.3-3.122-3.044,4.315-.627,1.93-3.91,1.93,3.91,4.315.627-3.123,3.044.737,4.3Z"></path><path class="e" d="M1460.612,1848.245l-3.86,2.029.737-4.3-3.123-3.044,4.315-.627,1.93-3.91,1.93,3.91,4.315.627-3.123,3.044.737,4.3Z"></path><path class="e" d="M1475.948,1848.245l-3.86,2.029.737-4.3-3.123-3.044,4.315-.627,1.93-3.91,1.93,3.91,4.315.627-3.122,3.044.737,4.3Z"></path><path class="e" d="M1491.285,1848.245l-3.86,2.029.737-4.3-3.123-3.044,4.315-.627,1.93-3.91,1.93,3.91,4.315.627-3.122,3.044.737,4.3Z"></path><path class="e" d="M1506.622,1848.245l-3.86,2.029.737-4.3-3.123-3.044,4.315-.627,1.93-3.91,1.93,3.91,4.315.627-3.122,3.044.737,4.3Z"></path><rect class="f" width="60.772" height="54.303" transform="translate(1439.188 1867.031)"></rect><rect class="g" width="133.211" height="54.303" transform="translate(1499.96 1867.031)"></rect><rect class="h" width="53.454" height="2.545" transform="translate(1510.142 1882.516)"></rect><rect class="h" width="53.454" height="2.545" transform="translate(1510.142 1893.546)"></rect><rect class="h" width="53.454" height="2.545" transform="translate(1510.142 1904.576)"></rect><path class="i" d="M1474.134,1895.93a8.49,8.49,0,1,0-9.6-.118,11.25,11.25,0,0,0-9.542,11.113v.818c0,.077.01.151.012.227h27.976c0-.076.012-.15.012-.227v-.818A11.258,11.258,0,0,0,1474.134,1895.93Z"></path><path class="j" d="M1480.1,1708.21v40.91h-40.91v-36.664l18.526-42.84h17.367l-11.193,38.594Zm56.347,0v40.91h-40.909v-36.664l18.525-42.84h17.367l-11.192,38.594Z"></path><rect class="f" width="157.817" height="2.545" transform="translate(1440.567 1766.275)"></rect><rect class="f" width="157.817" height="2.545" transform="translate(1440.567 1777.305)"></rect><rect class="f" width="157.817" height="2.545" transform="translate(1440.567 1788.335)"></rect><path class="k" d="M1659.772,1933.652q-1.048,0-2.085.054a51.13,51.13,0,0,0-92.433.727,41.11,41.11,0,0,0-49.085,40.294h184.677A41.074,41.074,0,0,0,1659.772,1933.652Z"></path><path class="l" d="M1692.75,1946.73c-.476,0-.951.013-1.421.036a34.851,34.851,0,0,0-63,.5,28.024,28.024,0,0,0-33.458,27.465h125.879A28,28,0,0,0,1692.75,1946.73Z"></path><path class="m" d="M1414.264,1715.035v34.27H1397.3v-43.433A32.108,32.108,0,0,1,1414.264,1715.035Z"></path></g></svg>