<svg xmlns="http://www.w3.org/2000/svg" width="119.313" height="179.035" viewBox="0 0 119.313 179.035"><defs><style>.a{fill:none;stroke:#1e1b4c;stroke-miterlimit:10;stroke-width:1.5px;}</style></defs><g transform="translate(-337.357 -2271.254)"><path class="a" d="M355.785,2414.467q23.219-20.073,36.643-33.015a148.7,148.7,0,0,0,22.373-26.969q8.946-14.025,8.949-28.058,0-14.513-6.893-22.736t-21.648-8.224q-14.273,0-22.13,9.071t-8.345,24.308H338.127q.726-27.573,16.569-42.207T394.968,2272q26.361,0,41.24,14.512t14.875,38.7a68.715,68.715,0,0,1-8.829,33.5,135,135,0,0,1-21.043,28.784q-12.216,12.7-31.081,29.387l-10.884,9.675H455.92v22.978H338.37v-20.075Z"></path></g></svg>