<svg xmlns="http://www.w3.org/2000/svg" xmlns:xlink="http://www.w3.org/1999/xlink" style="position:absolute;left: -100%;" height="0" width="0"><symbol id="icon-anwp-pg-calendar" viewBox="0 0 14 16"><path fill-rule="evenodd" d="M13 2h-1v1.5c0 .28-.22.5-.5.5h-2c-.28 0-.5-.22-.5-.5V2H6v1.5c0 .28-.22.5-.5.5h-2c-.28 0-.5-.22-.5-.5V2H2c-.55 0-1 .45-1 1v11c0 .55.45 1 1 1h11c.55 0 1-.45 1-1V3c0-.55-.45-1-1-1zm0 12H2V5h11v9zM5 3H4V1h1v2zm6 0h-1V1h1v2zM6 7H5V6h1v1zm2 0H7V6h1v1zm2 0H9V6h1v1zm2 0h-1V6h1v1zM4 9H3V8h1v1zm2 0H5V8h1v1zm2 0H7V8h1v1zm2 0H9V8h1v1zm2 0h-1V8h1v1zm-8 2H3v-1h1v1zm2 0H5v-1h1v1zm2 0H7v-1h1v1zm2 0H9v-1h1v1zm2 0h-1v-1h1v1zm-8 2H3v-1h1v1zm2 0H5v-1h1v1zm2 0H7v-1h1v1zm2 0H9v-1h1v1z"/></symbol><symbol id="icon-anwp-pg-clock" viewBox="0 0 14 16"><path fill-rule="evenodd" d="M8 8h3v2H7c-.55 0-1-.45-1-1V4h2v4zM7 2.3c3.14 0 5.7 2.56 5.7 5.7s-2.56 5.7-5.7 5.7A5.71 5.71 0 011.3 8c0-3.14 2.56-5.7 5.7-5.7zM7 1C3.14 1 0 4.14 0 8s3.14 7 7 7 7-3.14 7-7-3.14-7-7-7z"/></symbol><symbol id="icon-anwp-pg-comment-discussion" viewBox="0 0 16 16"><path fill-rule="evenodd" d="M15 1H6c-.55 0-1 .45-1 1v2H1c-.55 0-1 .45-1 1v6c0 .55.45 1 1 1h1v3l3-3h4c.55 0 1-.45 1-1V9h1l3 3V9h1c.55 0 1-.45 1-1V2c0-.55-.45-1-1-1zM9 11H4.5L3 12.5V11H1V5h4v3c0 .55.45 1 1 1h3v2zm6-3h-2v1.5L11.5 8H6V2h9v6z"/></symbol><symbol id="icon-anwp-pg-device-camera" viewBox="0 0 16 16"><path fill-rule="evenodd" d="M15 3H7c0-.55-.45-1-1-1H2c-.55 0-1 .45-1 1-.55 0-1 .45-1 1v9c0 .55.45 1 1 1h14c.55 0 1-.45 1-1V4c0-.55-.45-1-1-1zM6 5H2V4h4v1zm4.5 7C8.56 12 7 10.44 7 8.5S8.56 5 10.5 5 14 6.56 14 8.5 12.44 12 10.5 12zM13 8.5c0 1.38-1.13 2.5-2.5 2.5S8 9.87 8 8.5 9.13 6 10.5 6 13 7.13 13 8.5z"/></symbol><symbol id="icon-anwp-pg-eye" viewBox="0 0 16 16"><path fill-rule="evenodd" d="M8.06 2C3 2 0 8 0 8s3 6 8.06 6C13 14 16 8 16 8s-3-6-7.94-6zM8 12c-2.2 0-4-1.78-4-4 0-2.2 1.8-4 4-4 2.22 0 4 1.8 4 4 0 2.22-1.78 4-4 4zm2-4c0 1.11-.89 2-2 2-1.11 0-2-.89-2-2 0-1.11.89-2 2-2 1.11 0 2 .89 2 2z"/></symbol><symbol id="icon-anwp-pg-person" viewBox="0 0 24 24"><path fill-rule="evenodd" d="M12 2.5a5.5 5.5 0 00-3.096 10.047 9.005 9.005 0 00-5.9 8.18.75.75 0 001.5.045 7.5 7.5 0 0114.993 0 .75.75 0 101.499-.044 9.005 9.005 0 00-5.9-8.181A5.5 5.5 0 0012 2.5zM8 8a4 4 0 118 0 4 4 0 01-8 0z"/></symbol><symbol id="icon-anwp-pg-play" viewBox="0 0 14 16"><path fill-rule="evenodd" d="M14 8A7 7 0 110 8a7 7 0 0114 0zm-8.223 3.482l4.599-3.066a.5.5 0 000-.832L5.777 4.518A.5.5 0 005 4.934v6.132a.5.5 0 00.777.416z"/></symbol><symbol id="icon-anwp-pg-tag" viewBox="0 0 14 16"><path fill-rule="evenodd" d="M7.685 1.72a2.49 2.49 0 00-1.76-.726H3.48A2.5 2.5 0 00.994 3.48v2.456c0 .656.269 1.292.726 1.76l6.024 6.024a.99.99 0 001.402 0l4.563-4.563a.99.99 0 000-1.402L7.685 1.72zM2.366 7.048a1.54 1.54 0 01-.467-1.123V3.48c0-.874.716-1.58 1.58-1.58h2.456c.418 0 .825.159 1.123.467l6.104 6.094-4.702 4.702-6.094-6.114zm.626-4.066h1.989v1.989H2.982V2.982h.01z"/></symbol></svg>